<mxfile host="Electron" modified="2024-01-24T05:11:47.135Z" agent="Mozilla/5.0 (Windows NT 10.0; Win64; x64) AppleWebKit/537.36 (KHTML, like Gecko) draw.io/22.1.21 Chrome/120.0.6099.109 Electron/28.1.0 Safari/537.36" etag="LMPzp3dKyiHVytUuo2_v" version="22.1.21" type="device">
  <diagram name="Page-1" id="o9wBVmuPF-BfS5Mu2OIw">
    <mxGraphModel dx="471" dy="321" grid="1" gridSize="10" guides="1" tooltips="1" connect="1" arrows="1" fold="1" page="1" pageScale="1" pageWidth="850" pageHeight="1100" math="0" shadow="0">
      <root>
        <mxCell id="0" />
        <mxCell id="1" parent="0" />
        <mxCell id="k8vPMHwsldSHbkCenQTe-2" value="&lt;font face=&quot;consolas&quot;&gt;Base&lt;br&gt;&lt;/font&gt;" style="rounded=0;whiteSpace=wrap;html=1;fillColor=#fad7ac;strokeColor=#b46504;" vertex="1" parent="1">
          <mxGeometry x="360" y="170" width="100" height="50" as="geometry" />
        </mxCell>
        <mxCell id="k8vPMHwsldSHbkCenQTe-15" style="rounded=0;orthogonalLoop=1;jettySize=auto;html=1;" edge="1" parent="1" source="k8vPMHwsldSHbkCenQTe-6" target="k8vPMHwsldSHbkCenQTe-2">
          <mxGeometry relative="1" as="geometry" />
        </mxCell>
        <mxCell id="k8vPMHwsldSHbkCenQTe-6" value="&lt;font face=&quot;consolas&quot;&gt;A&lt;br&gt;&lt;br&gt;&lt;/font&gt;" style="rounded=0;whiteSpace=wrap;html=1;fillColor=#b1ddf0;strokeColor=#10739e;" vertex="1" parent="1">
          <mxGeometry x="260" y="260" width="100" height="50" as="geometry" />
        </mxCell>
        <mxCell id="k8vPMHwsldSHbkCenQTe-17" style="rounded=0;orthogonalLoop=1;jettySize=auto;html=1;" edge="1" parent="1" source="k8vPMHwsldSHbkCenQTe-7" target="k8vPMHwsldSHbkCenQTe-2">
          <mxGeometry relative="1" as="geometry" />
        </mxCell>
        <mxCell id="k8vPMHwsldSHbkCenQTe-7" value="&lt;font face=&quot;consolas&quot;&gt;B&lt;br&gt;&lt;br&gt;&lt;/font&gt;" style="rounded=0;whiteSpace=wrap;html=1;fillColor=#fad9d5;strokeColor=#ae4132;" vertex="1" parent="1">
          <mxGeometry x="460" y="260" width="100" height="50" as="geometry" />
        </mxCell>
        <mxCell id="k8vPMHwsldSHbkCenQTe-8" value="&lt;font face=&quot;consolas&quot;&gt;Base&lt;br&gt;&lt;/font&gt;" style="rounded=0;whiteSpace=wrap;html=1;fillColor=#fad7ac;strokeColor=#b46504;" vertex="1" parent="1">
          <mxGeometry x="280" y="290" width="79" height="19" as="geometry" />
        </mxCell>
        <mxCell id="k8vPMHwsldSHbkCenQTe-9" value="&lt;font face=&quot;consolas&quot;&gt;Base&lt;br&gt;&lt;/font&gt;" style="rounded=0;whiteSpace=wrap;html=1;fillColor=#fad7ac;strokeColor=#b46504;" vertex="1" parent="1">
          <mxGeometry x="480" y="290" width="79" height="19" as="geometry" />
        </mxCell>
        <mxCell id="k8vPMHwsldSHbkCenQTe-18" style="rounded=0;orthogonalLoop=1;jettySize=auto;html=1;" edge="1" parent="1" source="k8vPMHwsldSHbkCenQTe-10" target="k8vPMHwsldSHbkCenQTe-6">
          <mxGeometry relative="1" as="geometry" />
        </mxCell>
        <mxCell id="k8vPMHwsldSHbkCenQTe-19" style="rounded=0;orthogonalLoop=1;jettySize=auto;html=1;" edge="1" parent="1" source="k8vPMHwsldSHbkCenQTe-10" target="k8vPMHwsldSHbkCenQTe-7">
          <mxGeometry relative="1" as="geometry" />
        </mxCell>
        <mxCell id="k8vPMHwsldSHbkCenQTe-10" value="&lt;font face=&quot;consolas&quot;&gt;Derived&lt;br&gt;&lt;br&gt;&lt;br&gt;&lt;/font&gt;" style="rounded=0;whiteSpace=wrap;html=1;fillColor=#B0F9E0;strokeColor=#0E8088;" vertex="1" parent="1">
          <mxGeometry x="360" y="350" width="100" height="50" as="geometry" />
        </mxCell>
        <mxCell id="k8vPMHwsldSHbkCenQTe-11" value="&lt;font face=&quot;consolas&quot;&gt;A&amp;nbsp;&amp;nbsp; &amp;nbsp;&lt;br&gt;&lt;/font&gt;" style="rounded=0;whiteSpace=wrap;html=1;fillColor=#b1ddf0;strokeColor=#10739e;" vertex="1" parent="1">
          <mxGeometry x="380" y="370" width="39" height="29" as="geometry" />
        </mxCell>
        <mxCell id="k8vPMHwsldSHbkCenQTe-12" value="&lt;font face=&quot;consolas&quot;&gt;B&amp;nbsp; &amp;nbsp;&amp;nbsp;&lt;br&gt;&lt;/font&gt;" style="rounded=0;whiteSpace=wrap;html=1;fillColor=#fad9d5;strokeColor=#ae4132;" vertex="1" parent="1">
          <mxGeometry x="420" y="370" width="39" height="29" as="geometry" />
        </mxCell>
        <mxCell id="k8vPMHwsldSHbkCenQTe-13" value="&lt;font face=&quot;consolas&quot;&gt;Base&lt;br&gt;&lt;/font&gt;" style="rounded=0;whiteSpace=wrap;html=1;fillColor=#fad7ac;strokeColor=#b46504;" vertex="1" parent="1">
          <mxGeometry x="390" y="380" width="28" height="18" as="geometry" />
        </mxCell>
        <mxCell id="k8vPMHwsldSHbkCenQTe-14" value="&lt;font face=&quot;consolas&quot;&gt;Base&lt;br&gt;&lt;/font&gt;" style="rounded=0;whiteSpace=wrap;html=1;fillColor=#fad7ac;strokeColor=#b46504;" vertex="1" parent="1">
          <mxGeometry x="430" y="380" width="28" height="18" as="geometry" />
        </mxCell>
      </root>
    </mxGraphModel>
  </diagram>
</mxfile>
